<svg enable-background="new 0 0 1125 2436" viewBox="0 0 1125 2436" xmlns="http://www.w3.org/2000/svg"><g fill="#ffffff"><path d="m551.16 1176.44c-25.62 25.55-51.56 51.42-77.22 77.02-25.24-25.24-50.84-50.83-76.26-76.26 25.57-25.53 51.48-51.4 77.09-76.96 25.2 25.15 50.77 50.64 76.39 76.2zm-121.17 5.89c13.76 14.03 27.23 27.86 40.83 41.56 2.74 2.76 5.59 2.48 8.56-.41 4.56-4.43 9-8.98 13.5-13.47 9.17-9.16 18.35-18.32 27.5-27.49 4.12-4.13 4.18-6.75.3-10.76-4.07-4.21-8.16-8.41-12.21-12.64-4.38-4.57-7.02-4.77-11.87-.88-4.53 3.64-9.08 7.27-13.62 10.9.02-.93.4-1.52.83-2.07 3.26-4.1 6.62-8.12 9.77-12.29 3.31-4.37 3.07-7-.65-10.8-4.01-4.1-8.01-8.2-12.03-12.29-4.76-4.84-7.58-4.91-12.26-.18-11.83 11.97-23.62 23.97-35.42 35.97-.8.81-1.52 1.69-2.79 3.12 7.68 0 14.42.18 21.13-.11 1.98-.09 4.38-1.01 5.78-2.37 5.39-5.26 10.46-10.86 15.64-16.33.36.31.71.62 1.07.93-.4.71-.78 1.43-1.2 2.13-3.47 5.76-6.98 11.51-10.42 17.28-1.39 2.33-2.45 4.77-.15 7.18 3.02 3.15 6.04 6.3 9.16 9.34 2.44 2.37 5.19 2.68 8.17.83 2.86-1.77 5.79-3.42 8.71-5.1 3.34-1.91 6.71-3.79 10.99-6.21-8.61 8.73-16.38 16.6-24.63 24.97-6.11-6.26-12.16-12.51-18.3-18.68-.91-.91-2.19-2.02-3.32-2.05-7.7-.16-15.4-.08-23.07-.08z"/><path d="m594.05 1173.99c0-9.45 0-18.63 0-27.78 6.31-1.54 8.65-.96 9.31 1.85 3.19-1 6.33-2.36 9.61-2.92 3.54-.6 6.57.87 7.99 3.52 3.52-1.29 6.6-3.01 9.87-3.48 5.01-.73 8.43 1.87 8.77 6.92.47 7.16.12 14.38.12 21.84-3.03 0-6.2 0-9.94 0 0-4.7.03-9.5-.01-14.3-.02-2.32.36-5.08-2.98-5.49-2.26-.27-4.51 2.73-4.54 5.84-.05 4.58-.01 9.17-.01 13.98-3.51 0-6.68 0-10.38 0 0-4.65.04-9.33-.02-14.02-.03-2.4.6-5.39-3.01-5.8-2.37-.27-4.48 2.83-4.5 6.25-.03 4.46-.01 8.91-.01 13.58-3.52.01-6.7.01-10.27.01z"/><path d="m661.36 1155.43c-.71-4.47-3.99-4.81-13.53-.65-.9-1.85-1.8-3.72-2.69-5.56 5.33-5.06 17.49-5.66 23.05-1.25 3.14 2.5 3.71 5.97 3.89 9.7.14 2.91-.79 5.84 2.12 8.55 1.29 1.21.22 4.95.21 7.55-5.81 2.04-8.49 1.27-11.38-3.37-3.43 3.23-7.25 5.28-12.16 3.97-4.09-1.1-6.86-4.13-7.23-8.07-.34-3.64 1.65-7.67 5.5-8.9 3.79-1.22 7.93-1.33 12.22-1.97zm-3.39 4.88c-1.8 1.67-3.16 2.93-4.51 4.18 1.06.96 2.07 2.63 3.19 2.72 2.34.18 4.96-.55 4.94-3.58 0-.91-1.91-1.82-3.62-3.32z"/><path d="m728.61 1166.75c-2.61 6.8-11.43 9.23-18.39 7.45-6.63-1.69-10.92-7.21-10.95-14.23-.03-7.23 4.16-12.61 11.18-14.38 7.68-1.93 14.66.75 18.17 7.31-4.25.6-7.81 4.19-12.62 1.27-.98-.6-4.52.75-4.89 1.87-.79 2.35-.8 5.33-.03 7.68.37 1.14 3.96 2.56 4.86 1.97 4.79-3.15 8.41.77 12.67 1.06z"/><path d="m600.73 1219.66c-2.61.91-4.35 1.52-6.52 2.27 0-14.26 0-27.68 0-41.39h5.22v15.97c8.76-3.96 14.71-3.06 18.81 2.5 4.09 5.54 3.63 14.08-1.01 19.02-4.59 4.89-10.48 5.28-16.5 1.63zm-1.08-11.8c.04 5.84 3.01 9.31 7.9 9.24 4.45-.06 7.92-4.03 7.97-9.1.05-5.23-3.52-9.18-8.26-9.15-4.89.03-7.65 3.3-7.61 9.01z"/><path d="m682.66 1210.25c2.01 7.07 8.06 8.7 15.78 4.26.92.89 1.94 1.88 2.95 2.86-5.27 5.35-13.06 6.13-18.8 2.24-5.65-3.83-7.71-11.21-4.9-17.57 2.81-6.35 8.85-9.45 15.18-7.78 6.19 1.63 9.71 7.65 9.08 15.99-6.37 0-12.78 0-19.29 0zm-.34-4.7h6.99 7.09c-.82-4.19-2.71-6.47-6.52-6.69-3.55-.19-5.81 1.73-7.56 6.69z"/><path d="m688.41 1174.05c-3.72 0-6.8 0-10.09 0 0-9.46 0-18.75 0-28.23h8.99c.12 1.2.24 2.39.35 3.45 2.87-1.61 5.82-3.27 8.76-4.93.36.28.71.56 1.07.84 0 2.56.19 5.13-.12 7.65-.09.7-1.62 1.58-2.6 1.75-5.91 1-6.35 1.43-6.35 7.34-.01 3.96-.01 7.92-.01 12.13z"/><path d="m651.95 1207.88c.02 7.76-6.04 14.15-13.45 14.18-7.37.03-13.5-6.36-13.53-14.11-.03-7.72 6.1-14.18 13.45-14.2 7.39-.01 13.51 6.37 13.53 14.13zm-5.62 0c-.02-5.14-3.5-9.12-7.95-9.08-4.46.04-7.86 4.04-7.83 9.19.03 5.14 3.51 9.12 7.95 9.1 4.4-.02 7.85-4.07 7.83-9.21z"/><path d="m731.11 1221.88c-2.13-.69-3.81-1.24-6.09-1.98-1.13.43-3.02 1.47-5.04 1.87-5.91 1.17-11.29-2.38-11.84-8.45-.56-6.14-.12-12.36-.12-18.72h4.97c0 4.99-.03 9.93.01 14.87.03 5.18 1.98 7.52 6.16 7.53 4.33 0 6.64-2.58 6.68-7.57.04-4.84.01-9.67.01-14.75h5.27c-.01 8.71-.01 17.46-.01 27.2z"/><path d="m662.47 1195.77c3.69-.81 7.23-1.6 11.78-2.6-.68 2.74-1.02 4.1-1.41 5.69-1.11 0-2.06-.03-3.02.01-4.48.16-7.17 2.72-7.28 7.22-.12 4.95-.03 9.91-.03 15.07-1.97 0-3.53 0-5.36 0 0-8.73 0-17.49 0-27.16 2.05.67 3.82 1.27 5.32 1.77z"/><path d="m516.93 1314.88c-.3-3.95-.97-7.97-5.66-5.8-1.35.62-1.52 3.8-2.23 5.81.54.35 1.08.7 1.62 1.05 1.17-1.12 2.34-2.25 3.7-3.55v8.14c-1.31-1.31-2.48-2.48-3.64-3.65-.56.36-1.12.72-1.68 1.08.74 1.84 1 4.77 2.29 5.34 4.89 2.13 5.21-2.13 5.64-6.48 2.75 6.68 1.63 8.63-3.72 8.63-2.99-.01-5.98 0-8.96-.39 6.03-3.5 2.4-8.99 3.08-13.34.19-1.24-1.55-2.78-2.68-4.63 3.86 0 8.22-.36 12.4.31.82.13.98 4.31 1.44 6.62-.53.28-1.06.57-1.6.86z"/><path d="m567.25 1324.37c3.77-.6 3.83-2.99 3.61-5.66-.16-1.98-.09-3.98-.02-5.97.09-2.32.19-4.55-3.49-4.37 2.98-2.25 10.98-2.04 13.15-.04 2.66 2.46 3.17 10.86.88 14.49-1.77 2.83-8.81 3.74-14.13 1.55zm5.75-8.21c0 1.24-.25 2.54.07 3.69.36 1.32 1.23 2.5 1.88 3.74 1.6-.84 4.36-1.45 4.58-2.57.63-3.15.62-6.59-.01-9.74-.22-1.11-2.95-1.89-4.66-2.34-.3-.08-1.45 2.21-1.8 3.52-.31 1.16-.06 2.46-.06 3.7z"/><path d="m418.54 1324.96c-2.85 0-5.69 0-9.11 0 6.48-3.62 2.75-9.19 3.53-13.67.17-1-1.55-2.34-2.62-3.83.13-.06.77-.56 1.44-.58 2.49-.1 4.98-.06 7.47-.05 4.89.01 6.23 2.68 3.1 8.53.08-4.59-.81-8.18-5.31-6.28-1.38.59-1.62 3.89-2.38 5.94.56.34 1.11.68 1.67 1.02 1.14-1.13 2.29-2.26 3.64-3.59v8.05c-1.15-1.21-2.32-2.43-4.15-4.35-.82 4.34-1.71 7.39 2.72 8.81z"/><path d="m661.55 1325.53c1 1.28 1.99 2.56 3.13 4.04-2.48 0-4.98 0-8.08 0 4.34-2.73 4.54-14.94.87-16.95.04-.23.08-.65.14-.65 3.29-.16 6.63-.72 9.85-.29 3.42.45 4.9 5.36 3.48 10.07-1.07 3.56-3.76 4.49-8.49 2.96-.31.26-.61.54-.9.82zm8.33-6.42c-1.03-3.11-.94-5.8-4.32-5.79-3.3.01-3.51 2.55-3.52 4.99-.01 2.58.35 5.59 3.64 5.16 1.56-.21 2.81-2.84 4.2-4.36z"/><path d="m554.67 1325.35c-2.7 0-6.06.3-9.34-.09-3.16-.37-4.68-4.62-3.75-9.38.63-3.23 2.97-4.96 6.19-4.5.84.12 1.64.46 3.73 1.07-1.24-2.2-1.98-3.52-2.73-4.84 2.78-1.71 3.95-1.19 4.01 2.3.05 3.23-.17 6.48.09 9.7.14 1.73 1.03 3.39 1.8 5.74zm-4.01-6.92c-.13-2.18.12-5.03-3.47-5.11-3.04-.07-3.47 2.25-3.49 4.63-.02 2.52-.06 5.42 3.28 5.66 3.16.21 3.59-2.39 3.68-5.18z"/><path d="m713.14 1335.09c-.16-5.91 11.77-33.47 15.05-34.6-1.76 4.54-3.26 8.49-4.8 12.41-1.55 3.93-3.02 7.91-4.77 11.75-1.63 3.57-2.41 7.72-5.48 10.44z"/><path d="m465.84 1324.85c2.88-1.82 4.21-7.51 2.71-10.07-1.04-1.79-3.96-2.05-5.5-.49-2.38 2.41-1.6 8.48 2.22 10.62-3.3 0-5.73 0-8.37 0 3.99-3.31 4.02-10.22.25-12.36.05-.23.1-.64.17-.65 3.31-.17 6.7-.77 9.9-.24 1.49.25 2.96 2.54 3.79 4.22.59 1.2-.1 2.97.18 4.41s1.07 2.79 1.78 4.57c-1.69-.01-4.19-.01-7.13-.01z"/><path d="m538.33 1325c-2.41 0-4.82 0-7.82 0 3.12-2.14 4.3-7.1 2.87-9.99-.92-1.87-3.77-2.36-5.42-.94-2.53 2.18-1.7 8.81 2.37 10.81-3.6 0-6.13 0-9.3 0 4.44-2.59 4.6-9.94.89-12.51.13-.21.25-.58.39-.59 3.28-.11 6.61-.54 9.84-.17 3.55.41 3.71 3.4 3.67 6.3-.03 2.53-1.14 5.57 2.51 7.09z"/><path d="m675.94 1320.14c1.07 1.13 2.18 3.24 3.2 3.19 1.87-.09 3.69-1.44 6.23-2.57-.45 1.11-.6 2.5-1.38 3.26-3.04 2.99-8.3 1.46-9.55-2.63-1.45-4.77.48-9.22 4.33-9.94 3.49-.66 6.2 1.24 6.84 4.66.36 1.91-.2 2.89-2.21 2.89-1.12 0-2.24.01-3.36.02-1.1 0-2.2 0-3.31 0-.26.37-.53.75-.79 1.12zm7.25-3.14c.07-2.69-1.3-4.07-3.58-3.59-1.34.28-2.42 1.8-3.62 2.76.23.28.47.55.7.83z"/><path d="m629.78 1318.96c-3.02 0-5.82 0-8.61 0-.23.31-.47.63-.7.94.95 1.18 1.95 3.38 2.84 3.34 1.98-.1 3.9-1.31 6.57-2.36-.54 1.13-.8 2.7-1.72 3.37-2.4 1.76-5.14 1.87-7.59 0-2.22-1.7-2.81-7.23-1.19-10.1 1.52-2.69 3.95-3.23 6.73-2.52 2.96.74 3.91 2.57 3.67 7.33zm-2.08-1.87c-.14-2.59-1.26-4.19-3.66-3.68-1.32.28-2.38 1.8-3.55 2.76.25.31.5.61.75.92z"/><path d="m596.87 1318.98c-3.06 0-5.86 0-8.66 0-.23.31-.46.63-.68.94.96 1.18 1.97 3.36 2.87 3.32 1.97-.1 3.88-1.32 6.58-2.39-.58 1.17-.85 2.75-1.77 3.42-2.4 1.74-5.15 1.85-7.6-.04-2.21-1.71-2.78-7.26-1.16-10.11 1.53-2.68 3.98-3.25 6.74-2.48 3.4.94 4.18 3.5 3.68 7.34zm-5.49-5.52c-1.3.01-2.59 1.59-3.89 2.48.21.35.41.71.62 1.06h6.46c.21-.36.43-.72.64-1.08"/><path d="m600.23 1311.84h7.26c-4.8 3.87.09 6.84-.23 10.71 3.42-4.88 3.82-8.27 1.01-10.7h7.33c-4.39 2.57-3.81 7.51-5.78 11.08-.5.9-1.26 1.64-1.9 2.46-.67-.78-1.56-1.46-1.96-2.36-.89-2.04-1.37-4.27-2.34-6.28-.76-1.57-2-2.92-3.39-4.91z"/><path d="m654.48 1318.31c.01 4.61-1.94 7.07-5.66 7.16-3.98.09-6.07-2.38-6.07-7.14 0-4.5 2.11-7.01 5.86-7.01 3.79-.01 5.86 2.46 5.87 6.99zm-2.2-.15c-.43-1.98-.15-4.77-3.55-4.85-3.39-.08-3.64 2.57-3.65 4.91-.01 2.47.17 5.43 3.62 5.39 3.17-.04 3.29-2.8 3.58-5.45z"/><path d="m442.75 1318.21c.05-4.57 2.1-6.95 5.94-6.89 3.76.06 5.78 2.57 5.74 7.12-.04 4.66-1.96 7-5.77 7.03-3.96.03-5.95-2.42-5.91-7.26zm10.21.99c-1.19-2.99-.83-5.82-4.27-5.88-3.34-.06-3.62 2.48-3.64 4.9-.03 2.55.3 5.61 3.58 5.25 1.58-.18 2.9-2.77 4.33-4.27z"/><path d="m695.85 1324.99c-2.47 0-4.95 0-8.08 0 4.59-2.92 4.7-10.26.07-12.91 1.61-.3 2.56-.58 3.53-.64 1.62-.1 3.33-.37 4.87-.01 1.67.39 3.32 1.25 4.68 2.3.42.32-.12 1.91-.22 2.91-.64-.6-1.53-1.08-1.86-1.82-1.06-2.37-2.77-1.86-4.21-.85-2.56 1.8-1.6 8.92 1.22 11.02z"/><path d="m395.34 1308.93c-1.32 1.44-2.59 2.95-3.99 4.32-1.42 1.39-2.99 2.63-4.78 4.2 3.23 3.37 6.06 6.32 8.88 9.27-.42.44-.85.88-1.27 1.32-4.34-2.26-6.95-6.63-9.54-8.75 3.18-3.88 6.31-7.69 9.44-11.49.42.37.84.75 1.26 1.13z"/><path d="m427.89 1311.71c3.34 0 6.76-.43 10.01.13 2.85.49 3.22 2.88 1.01 5.2-.32-.72-.6-1.34-.86-1.96-.86-2.05-3.19-2.48-4.68-.85-2.16 2.37-1.11 8.69 2.74 10.64-3.51 0-5.95 0-7.45 0 .51-2.01 1.33-4.12 1.51-6.28.19-2.26 1.05-5.07-2.65-5.95.13-.31.25-.62.37-.93z"/><path d="m476.6 1312.05c.68-1.49 1.45-3.16 2.64-5.76.49 2.1.8 3.4 1.12 4.75 1.07.3 2.2.61 4.4 1.23-2.14.62-3.23.94-4.63 1.35 0 2.24-.14 4.59.06 6.9.09 1.06.86 2.07 1.32 3.1.7-.85 1.44-1.67 2.08-2.57.32-.46.44-1.06.65-1.59.4.04.8.08 1.2.13-.12 1.32.18 2.94-.49 3.87-.73 1.01-2.41 1.97-3.57 1.86-1.13-.11-2.73-1.45-3.04-2.55-.56-1.97-.16-4.19-.43-6.27-.19-1.49-.83-2.89-1.31-4.45z"/><path d="m728.22 1326.83c2.79-2.98 5.58-5.97 9.47-10.13-3.16-2.66-6.22-5.24-9.5-8.01 2.94-.49 6.98 2.84 12.07 9.53-3.5 3.33-7.04 6.68-10.57 10.04-.49-.48-.98-.95-1.47-1.43z"/><path d="m639.6 1325.06c-1.79 0-4.2 0-6.97 0 4.17-3.52 4.23-14.89-.48-17.63 1.98-.23 3.3-.74 4.27-.36.64.25 1.08 1.76 1.11 2.73.13 3.36-.14 6.75.14 10.09.14 1.6 1.14 3.13 1.93 5.17z"/><path d="m501.58 1318.15c-4.85 0-8.82 0-13.22 0 2.61-2.04 9.51-2.15 13.22 0z"/></g></svg>